# xmcd CD database file
#
# Track frame offsets:
#	150
#	5712
#	45024
#	83265
#	144807
#	147189
#	210491
#	213776
#
# Disc length: 3374 seconds
#
# Revision: 1
# Processed by: cddbd v1.5.1PL0 Copyright (c) Steve Scherf et al.
# Submitted via: CDex 1.51
#
DISCID=560d2c08
DTITLE=Emily Remler Trio - Live in Los Vegas
DYEAR=1988
DGENRE=Jazz
TTITLE0=dj intro
TTITLE1=Yesterdays
TTITLE2=Polka Dots and Moonbeams
TTITLE3=All Blues
TTITLE4=dj talk
TTITLE5=Mana Des Carnival
TTITLE6=Emily introduces band
TTITLE7=D Natural Blues
EXTD=YEAR: 1988
EXTT0=
EXTT1=
EXTT2=
EXTT3=
EXTT4=
EXTT5=
EXTT6=
EXTT7=
PLAYORDER=
